User Type,Username,Date,Text
,hossmonkey,2012-10-17T22:57Z,"Thanks for the upload! Info on file
General
Format                                   : MPEG-4
Format profile                           : Base Media
Codec ID                                 : isom
File size                                : 442 MiB
Duration                                 : 1h 26mn
Overall bit rate mode                    : Variable
Overall bit rate                         : 718 Kbps
Encoded date                             : UTC 2012-10-16 18:07:48
Tagged date                              : UTC 2012-10-16 18:07:48

Video
ID                                       : 1
Format                                   : AVC
Format/Info                              : Advanced Video Codec
Format profile                           : High@L3.1
Format settings, CABAC                   : Yes
Format settings, ReFrames                : 5 frames
Codec ID                                 : avc1
Codec ID/Info                            : Advanced Video Coding
Duration                                 : 1h 26mn
Bit rate                                 : 586 Kbps
Maximum bit rate                         : 6 068 Kbps
Width                                    : 720 pixels
Height                                   : 404 pixels
Display aspect ratio                     : 16:9
Frame rate mode                          : Constant
Frame rate                               : 23.976 fps
Color space                              : YUV
Chroma subsampling                       : 4:2:0
Bit depth                                : 8 bits
Scan type                                : Progressive
Bits/(Pixel*Frame)                       : 0.084
Stream size                              : 361 MiB (82%)
Writing library                          : x264 core 128 r2216 198a7ea
Encoded date                             : UTC 2012-10-17 17:17:45
Tagged date                              : UTC 2012-10-16 18:07:55
Matrix coefficients                      : BT.709

Audio
ID                                       : 2
Format                                   : AAC
Format/Info                              : Advanced Audio Codec
Format profile                           : LC
Codec ID                                 : 40
Duration                                 : 1h 26mn
Bit rate mode                            : Variable
Bit rate                                 : 128 Kbps
Maximum bit rate                         : 161 Kbps
Channel(s)                               : 2 channels
Channel positions                        : Front: L R
Sampling rate                            : 48.0 KHz
Compression mode                         : Lossy
Delay relative to video                  : 83ms
Stream size                              : 78.8 MiB (18%)
Encoded date                             : UTC 2012-10-16 18:07:53
Tagged date                              : UTC 2012-10-16 18:07:55"
,angelmartin,2012-10-17T23:56Z,thank you
,beechyboy,2012-10-18T02:01Z,"Thanks 

So much smaller than AFG's version!"
,ddhom,2012-10-26T05:51Z,Part II anyone? Please.
,j0sh1130,2012-10-27T06:31Z,I'm with ddhom.  I'd like to get ahold of the second episode.  
,tlm2300,2012-10-27T11:06Z,"Anyone looking for part II here is the torrent:
http://thepiratebay.se/torrent/7764515"
